<svg width="80" height="116" viewBox="0 0 80 116" fill="none" xmlns="http://www.w3.org/2000/svg">
<g clip-path="url(#clip0_1_4326)">
<path d="M6.95162 26.6497C6.89044 26.7568 6.78337 26.9099 6.64571 27.109C6.50805 27.308 6.3551 27.507 6.18685 27.6755L5.07028 27.0324C5.25382 26.8028 5.39148 26.5884 5.49855 26.42C5.60562 26.2516 5.72798 26.0679 5.83505 25.8688C6.04919 25.5014 6.17155 25.1645 6.20214 24.8737C6.23274 24.5828 6.18685 24.3225 6.03389 24.0775C5.88094 23.8479 5.6515 23.6335 5.3303 23.4498C4.82555 23.1589 4.35139 23.067 3.90782 23.2048C3.47954 23.3273 3.11245 23.6335 2.83713 24.1234L2.40885 24.8737L9.16948 28.7472L8.3894 30.0945L0.512207 25.5779L1.84292 23.2354C2.14883 22.6843 2.53122 22.2709 2.95949 21.9647C3.38777 21.6585 3.84663 21.5054 4.32079 21.4594C4.81025 21.4288 5.28441 21.5513 5.77387 21.8269C6.17155 22.0565 6.49276 22.3321 6.75278 22.6996C7.01281 23.0517 7.19635 23.4498 7.31872 23.8785C7.42578 24.3072 7.45638 24.7665 7.39519 25.2411C7.3646 25.731 7.21165 26.1903 6.95162 26.6497Z" fill="white"/>
<path d="M13.0392 23.2508C12.7333 23.6183 12.3662 23.8786 11.9379 23.9857C11.5096 24.1082 11.0661 24.1082 10.6072 23.9857C10.1483 23.8632 9.70475 23.6183 9.27648 23.2661C8.80232 22.8681 8.46581 22.4241 8.25168 21.9188C8.03754 21.4136 7.96106 20.9236 8.00695 20.4184C8.05283 19.9132 8.23638 19.4845 8.55759 19.0864C8.75643 18.8414 8.98586 18.673 9.23059 18.5658C9.47532 18.4587 9.73534 18.4127 10.0107 18.4127C10.286 18.4281 10.5766 18.4893 10.8519 18.6271L11.0049 19.2089C10.699 19.1476 10.4236 19.1476 10.1789 19.2242C9.93418 19.3007 9.73534 19.4385 9.56709 19.6376C9.38355 19.8519 9.29177 20.0969 9.27648 20.3572C9.26118 20.6174 9.32236 20.893 9.47532 21.1533C9.62827 21.4289 9.84241 21.6892 10.1483 21.9341C10.4236 22.1638 10.7143 22.3475 11.0049 22.47C11.2955 22.5925 11.5708 22.6231 11.8308 22.5925C12.0909 22.5619 12.305 22.4394 12.4732 22.2403C12.6109 22.0719 12.7027 21.8423 12.7639 21.5514C12.825 21.2605 12.7639 20.939 12.6109 20.5562L13.1615 20.3572C13.3451 20.7552 13.4674 21.1227 13.5286 21.4595C13.5898 21.7963 13.5745 22.1179 13.498 22.4088C13.391 22.715 13.2533 22.9906 13.0392 23.2508ZM14.2628 21.781L13.1768 21.2299L10.3166 18.8414L9.78123 18.0606L10.3166 16.9583L14.7829 20.6787L14.2628 21.781Z" fill="white"/>
<path d="M17.7044 18.4739C17.4291 18.7035 17.1232 18.8873 16.802 18.9944C16.4654 19.1016 16.1137 19.1322 15.716 19.0557C15.3183 18.9791 14.89 18.7801 14.4311 18.4586C13.9723 18.1371 13.4522 17.6471 12.9016 17.0041C12.611 16.6673 12.3204 16.2692 12.0603 15.8252C11.785 15.3812 11.5862 14.9066 11.4485 14.3707C11.3109 13.8348 11.2803 13.2683 11.372 12.6559C11.4638 12.0435 11.7238 11.3852 12.1521 10.6809L12.9781 9.34888L13.9723 10.8187L13.2228 11.8445C12.9475 12.2119 12.7333 12.5334 12.5957 12.809C12.458 13.0846 12.3815 13.3296 12.3662 13.5439C12.351 13.7583 12.4121 13.9879 12.5345 14.2176C12.6569 14.4472 12.8404 14.7075 13.0851 14.9831C13.1769 15.0903 13.2687 15.2128 13.3605 15.3199C13.4522 15.4271 13.544 15.5343 13.6358 15.6261L14.0182 16.0242C14.4923 16.5141 14.89 16.8969 15.2265 17.1572C15.563 17.4175 15.8536 17.5859 16.0831 17.6624C16.3125 17.739 16.5113 17.7543 16.6796 17.7084C16.8478 17.6624 16.9855 17.5859 17.1079 17.4787C17.3679 17.249 17.5055 17.0194 17.5361 16.7744C17.5667 16.5295 17.5208 16.2845 17.3985 16.0395C17.2761 15.7946 17.1232 15.5649 16.9396 15.3506C16.5113 14.8453 16.1137 14.5697 15.7619 14.5238C15.4101 14.4779 15.0889 14.5697 14.8135 14.8147C14.6606 14.9525 14.5382 15.1056 14.4311 15.2893C14.3394 15.473 14.2629 15.6721 14.2323 15.8711C14.2017 16.0855 14.2017 16.2998 14.2323 16.5295L13.5134 16.407C13.4828 16.1467 13.4828 15.9017 13.4828 15.6415C13.4981 15.3812 13.5287 15.1209 13.6052 14.8759C13.6664 14.6157 13.7734 14.386 13.8958 14.1563C14.0335 13.9267 14.2017 13.7277 14.4158 13.5439C14.7218 13.2837 15.0583 13.1152 15.4406 13.0387C15.823 12.9621 16.2207 12.9928 16.649 13.1305C17.062 13.2683 17.4597 13.5592 17.8268 13.9879C18.0868 14.2941 18.3009 14.6463 18.4692 15.0137C18.6374 15.3965 18.7292 15.7793 18.7445 16.1926C18.7598 16.606 18.6986 16.9888 18.5303 17.3868C18.3621 17.7849 18.0868 18.1524 17.7044 18.4739Z" fill="white"/>
<path d="M22.7518 14.8454C22.2929 15.121 21.8187 15.2588 21.314 15.2435C20.8245 15.2435 20.3504 15.1057 19.9221 14.8301C19.4938 14.5698 19.1267 14.1871 18.8361 13.6971C18.5149 13.1613 18.3467 12.6101 18.3314 12.0742C18.3161 11.523 18.4384 11.0178 18.6832 10.5585C18.9432 10.0992 19.3103 9.71642 19.815 9.41021C20.2739 9.13462 20.748 8.99683 21.2375 9.01214C21.727 9.01214 22.1858 9.14993 22.6141 9.41021C23.0577 9.67049 23.4095 10.0532 23.7154 10.5432C24.0366 11.079 24.2048 11.6149 24.2201 12.1661C24.2507 12.7173 24.1284 13.2225 23.8836 13.6971C23.6236 14.1564 23.2565 14.5392 22.7518 14.8454ZM22.3694 13.7737C22.6141 13.6206 22.7824 13.4215 22.8435 13.1766C22.9047 12.9316 22.9047 12.656 22.8282 12.3498C22.7518 12.0589 22.6294 11.768 22.4612 11.4924C22.2317 11.1097 21.987 10.8188 21.727 10.635C21.4669 10.436 21.1916 10.3288 20.9316 10.2982C20.6716 10.2676 20.4268 10.3288 20.1974 10.4666C19.9527 10.6197 19.7997 10.8035 19.7232 11.0484C19.6468 11.2934 19.6468 11.569 19.7232 11.8599C19.7997 12.1508 19.9221 12.4417 20.0903 12.7326C20.3198 13.1153 20.5645 13.4062 20.8245 13.6053C21.0998 13.8043 21.3599 13.9115 21.6352 13.9421C21.8952 13.9574 22.1399 13.9115 22.3694 13.7737Z" fill="white"/>
<path d="M26.9887 10.4819C26.4381 10.6962 25.9334 10.6962 25.4592 10.4666C25.0003 10.2369 24.6485 9.82354 24.4191 9.21113L23.7461 7.46574L25.0768 6.94519L25.5357 8.1394C25.7192 8.59871 25.9334 8.92023 26.1934 9.08865C26.4534 9.27237 26.7593 9.28768 27.1264 9.14989C27.2641 9.10396 27.3864 9.0274 27.5241 8.93554C27.6465 8.84368 27.7688 8.75181 27.8759 8.65995C27.983 8.56809 28.0747 8.49154 28.1359 8.41499L28.6407 9.10396C28.5336 9.28768 28.3959 9.4561 28.2277 9.63982C28.0594 9.80824 27.8759 9.97665 27.6618 10.1144C27.417 10.2829 27.2029 10.39 26.9887 10.4819ZM28.9619 11.6914L26.8664 6.27153L28.2277 5.75098L30.3232 11.1709L28.9619 11.6914Z" fill="white"/>
<path d="M31.4397 10.8035L30.262 5.108L31.6844 4.8171L32.7398 10.5432L31.4397 10.8035ZM32.3727 10.6197L32.2351 9.94609L33.7187 4.40372L34.4835 4.25062L34.6365 4.97021L33.1375 10.4666L32.3727 10.6197ZM35.1259 10.0533L34.0705 4.32717L35.3554 4.06689L36.5331 9.76237L35.1259 10.0533Z" fill="white"/>
<path d="M37.7109 9.60918L37.5273 3.79123L38.9651 3.7453L39.0263 9.56325L37.7109 9.60918ZM40.0511 2.73481C39.7299 2.75012 39.4087 2.67357 39.0875 2.53577C38.7663 2.38267 38.491 2.16832 38.2615 1.87743L39.1793 0.851629C39.4087 1.14253 39.6381 1.32625 39.8523 1.4028C40.0664 1.47935 40.2499 1.52529 40.4029 1.50998C40.617 1.50998 40.8159 1.44873 40.9841 1.32625C41.1524 1.20377 41.3206 1.02004 41.4889 0.759766L42.1466 1.21908C41.9477 1.70901 41.6571 2.09177 41.29 2.33674C40.8771 2.59702 40.4794 2.7195 40.0511 2.73481ZM38.6592 9.59387L38.6439 8.9049L41.0606 3.69936L41.8407 3.66874L41.856 4.40364L39.4393 9.56325L38.6592 9.59387ZM41.4583 9.50201L41.3971 3.68405L42.7125 3.63812L42.8961 9.45608L41.4583 9.50201Z" fill="white"/>
<path d="M46.4905 9.65511L51.6451 1.55591L53.1593 1.92336L53.97 11.4924L52.3487 11.0943L51.7215 1.96929L52.5934 2.18364L48.1118 10.0532L46.4905 9.65511Z" fill="white"/>
<path d="M56.6313 12.9928C56.1725 12.7937 55.8054 12.5028 55.5454 12.1354C55.2853 11.7679 55.1324 11.3392 55.1018 10.8493C55.0712 10.3594 55.1936 9.83882 55.4383 9.28765C55.7136 8.69054 56.0501 8.21592 56.4937 7.87909C56.922 7.52695 57.3961 7.32792 57.9009 7.25136C58.4056 7.17481 58.8951 7.25136 59.3845 7.46571C59.9964 7.7413 60.3787 8.15468 60.5011 8.70585C60.6235 9.25703 60.5317 9.88475 60.2258 10.5737C60.1799 10.6656 60.134 10.7728 60.0728 10.8952C60.0117 11.0177 59.9505 11.1249 59.8893 11.2321L58.7727 10.7268L59.0786 10.0379C59.2622 9.63978 59.3386 9.30296 59.3081 9.04268C59.2775 8.76709 59.1092 8.56806 58.8033 8.41495C58.5586 8.30778 58.2986 8.27716 58.0538 8.3384C57.8091 8.39964 57.5797 8.55275 57.3655 8.76709C57.1514 8.98144 56.9678 9.27234 56.7996 9.62448C56.5549 10.1757 56.4937 10.6503 56.616 11.079C56.7384 11.5077 57.0137 11.8139 57.4267 11.9976C57.6561 12.1048 57.9162 12.166 58.1915 12.166C58.4668 12.166 58.7421 12.1201 59.0327 12.0282L59.1092 12.9775C58.7727 13.1152 58.4668 13.2071 58.1609 13.2377C57.855 13.2684 57.5797 13.2684 57.3349 13.2071C57.0749 13.1612 56.8455 13.0846 56.6313 12.9928ZM56.1113 9.5173L56.6466 8.72116L60.134 10.2828L59.7363 11.1555L56.1113 9.5173Z" fill="white"/>
<path d="M59.5989 14.2483L62.6733 9.31836L63.9122 10.0992L60.8378 15.0291L59.5989 14.2483ZM62.6733 10.7422L63.3157 9.71643L65.8547 11.3087L65.2123 12.3345L62.6733 10.7422Z" fill="white"/>
<path d="M63.4226 16.6673L67.1853 12.2273L68.2866 13.1612L64.4321 17.5094L63.4226 16.6673ZM64.1415 17.295L64.5851 16.7745L69.862 14.5392L70.4585 15.0444L69.9844 15.5956L64.7227 17.8003L64.1415 17.295ZM66.2829 19.117L70.1373 14.7688L71.1468 15.6262L67.3841 20.0662L66.2829 19.117Z" fill="white"/>
<path d="M69.648 22.8986C69.3115 22.4852 69.0974 22.0412 69.0209 21.5513C68.9444 21.0613 69.0056 20.5867 69.2044 20.1121C69.4033 19.6375 69.7092 19.2241 70.1528 18.8566C70.6269 18.4585 71.147 18.1983 71.6823 18.0911C72.2176 17.9839 72.7377 18.0299 73.2424 18.1983C73.7472 18.382 74.1755 18.6882 74.5426 19.1322C74.8791 19.5456 75.0932 19.9896 75.1697 20.4642C75.2462 20.9388 75.185 21.4288 75.0014 21.8881C74.8179 22.3627 74.4967 22.7914 74.0531 23.1588C73.5789 23.5569 73.0742 23.8019 72.5388 23.9244C72.0035 24.0468 71.4835 24.0009 70.9787 23.8325C70.4587 23.6488 70.0304 23.3426 69.648 22.8986ZM70.6269 22.3474C70.8105 22.5771 71.0399 22.6995 71.2999 22.7148C71.5599 22.7455 71.8353 22.6842 72.1106 22.5617C72.3859 22.4393 72.6612 22.2708 72.9059 22.0718C73.2424 21.7809 73.4872 21.5053 73.6401 21.1991C73.7931 20.9082 73.8543 20.6173 73.839 20.357C73.8237 20.0968 73.7319 19.8518 73.5484 19.6528C73.3648 19.4384 73.1507 19.3159 72.8906 19.27C72.6306 19.2394 72.3706 19.2853 72.0953 19.3925C71.82 19.515 71.5446 19.6681 71.2846 19.8977C70.9481 20.1886 70.7034 20.4795 70.5504 20.7704C70.3975 21.0613 70.3363 21.3522 70.3516 21.6278C70.3822 21.9187 70.474 22.1484 70.6269 22.3474Z" fill="white"/>
<path d="M72.1565 25.7925L77.1887 22.8682L77.9076 24.1236L72.8754 27.0479L72.1565 25.7925ZM73.9614 28.8852L78.9936 25.9609L79.7125 27.2163L74.6803 30.1253L73.9614 28.8852ZM74.512 25.226L75.5368 24.6289L77.357 27.7675L76.3322 28.3646L74.512 25.226Z" fill="white"/>
<path d="M69.6328 44.9303V78.2305C67.0172 77.5415 64.264 77.1587 61.4344 77.1587C60.3178 77.1587 59.2012 77.22 58.1152 77.3271V46.247C58.1152 46.247 60.9602 40.0463 69.4492 41.6845C69.5716 42.7562 69.6328 43.828 69.6328 44.9303Z" stroke="white" stroke-miterlimit="10"/>
<path d="M69.449 41.6997C60.96 40.0615 58.115 46.2622 58.115 46.2622L57.7021 44.3484L57.1973 42.3427C56.9985 41.5466 57.2432 40.7198 57.8397 40.1533C62.7955 35.4377 68.5772 37.3362 68.5772 37.3362C68.9749 38.7448 69.2655 40.1993 69.449 41.6997Z" stroke="white" stroke-miterlimit="10"/>
<path d="M64.111 28.3797C62.199 29.6658 59.8894 30.416 57.3962 30.416C50.7427 30.416 45.3586 25.0268 45.3586 18.3667C45.3586 18.1218 45.3739 17.8768 45.3892 17.6318C53.0217 18.5198 59.6906 22.5465 64.111 28.3797Z" stroke="white" stroke-miterlimit="10"/>
<path d="M67.369 98.6545C64.2181 105.927 58.0234 111.561 50.3909 113.95C49.7485 112.48 49.3967 110.842 49.3967 109.142C49.3967 102.482 54.7808 97.0928 61.4343 97.0928C63.591 97.0775 65.6253 97.6593 67.369 98.6545Z" stroke="white" stroke-miterlimit="10"/>
<path d="M32.4644 41.2404C32.4644 41.2404 22.1705 42.0824 16.2817 35.7592C16.6029 34.8406 16.9853 33.922 17.3983 33.0493C22.5529 32.0694 29.4053 33.6923 32.4338 41.1791C32.4491 41.1944 32.4644 41.2098 32.4644 41.2404Z" stroke="white" stroke-miterlimit="10"/>
<path d="M64.1109 28.3796C62.1989 29.6657 59.8893 30.4159 57.3961 30.4159C50.7426 30.4159 45.3585 25.0266 45.3585 18.3666C45.3585 18.1217 45.3738 17.8767 45.3891 17.6317C44.3337 17.5092 43.2784 17.448 42.1924 17.448C31.2714 17.448 21.8493 23.8324 17.4289 33.0646C22.5835 32.0847 29.4359 33.7076 32.4644 41.1944C32.4644 41.1944 32.4797 41.2097 32.495 41.2557C32.6174 41.5619 33.2292 43.1389 34.1316 45.4048L37.9861 56.3211C37.9861 56.3211 28.7629 54.5298 27.0192 62.828V77.2811H14.7522V87.7381C14.7522 98.3941 20.8092 107.626 29.65 112.189C29.5583 111.194 29.5124 110.183 29.5124 109.157C29.5124 96.1894 37.2213 85.0281 48.3106 80.0063V52.4935L47.5152 48.9874C47.3164 48.1913 47.5611 47.3645 48.1576 46.798C52.4863 42.7714 57.4573 44.2718 57.7173 44.3484L57.2126 42.3427C57.0137 41.5466 57.2585 40.7198 57.855 40.1533C62.8107 35.4377 68.5924 37.3362 68.5924 37.3362C67.6441 34.0598 66.0993 31.0436 64.1109 28.3796ZM36.0436 72.2746L35.9671 66.6097C36.0742 65.4155 36.9307 64.7112 38.1391 64.7265C39.9898 64.7572 42.3453 66.4107 42.4371 72.2439L36.0436 72.2746Z" stroke="white" stroke-miterlimit="10"/>
<path d="M26.9887 68.5389V77.2658H14.7217V57.99C16.4654 62.9812 19.9833 67.7274 26.9887 68.5389Z" stroke="white" stroke-miterlimit="10"/>
<path d="M69.3573 91.627C69.0055 94.092 68.3325 96.4498 67.3689 98.6698C65.6099 97.6747 63.5909 97.0929 61.4342 97.0929C54.7807 97.0929 49.3967 102.482 49.3967 109.142C49.3967 110.857 49.7485 112.48 50.3909 113.95C48.1118 114.669 45.6951 115.083 43.1867 115.174C42.5596 113.276 42.2078 111.24 42.2078 109.127C42.2078 98.5014 50.8038 89.897 61.4189 89.897C64.2639 89.9123 66.9406 90.5247 69.3573 91.627Z" stroke="white" stroke-miterlimit="10"/>
<path d="M69.6327 84.8292V87.7076C69.6327 89.0396 69.5409 90.341 69.3574 91.6118C66.9407 90.5094 64.264 89.897 61.4343 89.897C50.8192 89.897 42.2231 98.5014 42.2231 109.127C42.2231 111.24 42.5749 113.276 43.202 115.174C42.8655 115.19 42.529 115.19 42.1925 115.19C41.1983 115.19 40.2194 115.144 39.2558 115.037C38.2922 114.93 37.3438 114.776 36.4108 114.577C36.0284 112.817 35.8296 110.995 35.8296 109.127C35.8296 94.9647 47.3012 83.4819 61.4496 83.4819C64.3099 83.4972 67.063 83.9719 69.6327 84.8292Z" stroke="white" stroke-miterlimit="10"/>
<path d="M69.6325 78.2304V84.8292C67.0629 83.9565 64.2944 83.4819 61.4341 83.4819C47.2858 83.4819 35.8141 94.9647 35.8141 109.127C35.8141 110.995 36.013 112.817 36.3953 114.577C34.0092 114.072 31.7455 113.245 29.6347 112.158C29.543 111.163 29.4971 110.153 29.4971 109.127C29.4971 96.1589 37.206 84.9976 48.2953 79.9758C51.3391 78.5979 54.6429 77.6792 58.115 77.3271C59.201 77.2199 60.3175 77.1587 61.4341 77.1587C64.2638 77.1587 67.017 77.5415 69.6325 78.2304Z" stroke="white" stroke-miterlimit="10"/>
<path d="M22.3847 45.3895H14.7217V44.9149C14.7217 43.6288 14.8135 42.3581 14.9817 41.1179C16.6642 42.3887 19.035 43.8585 22.3847 45.3895Z" stroke="white" stroke-miterlimit="10"/>
<path d="M26.9887 63.1802V68.5388C19.968 67.7427 16.4654 62.9811 14.7217 57.99V45.4048H18.1632C18.1632 45.3895 16.8019 60.4549 26.9887 63.1802Z" stroke="white" stroke-miterlimit="10"/>
<path d="M34.1011 45.3895H22.3847C19.035 43.8432 16.6642 42.3887 14.9817 41.1179C15.2417 39.2654 15.67 37.474 16.2818 35.7593C22.1706 42.0672 32.4645 41.2404 32.4645 41.2404C32.5868 41.5466 33.214 43.1236 34.1011 45.3895Z" stroke="white" stroke-miterlimit="10"/>
<path d="M58.1151 48.6353V77.3423C54.6431 77.6944 51.3545 78.6131 48.2954 79.991V52.4935C48.2954 52.4935 48.326 52.4169 48.3719 52.2638C48.8002 51.2534 50.9262 47.242 58.1151 48.6353Z" stroke="white" stroke-miterlimit="10"/>
<path d="M58.115 46.2624V48.6355C50.9261 47.2422 48.8 51.2536 48.387 52.2794C48.3259 52.4172 48.3106 52.509 48.3106 52.509L47.5152 49.0029C47.3163 48.2068 47.5611 47.38 48.1576 46.8135C52.4862 42.7869 57.4573 44.2873 57.7173 44.3639L58.115 46.2624Z" stroke="white" stroke-miterlimit="10"/>
<path d="M58.1152 77.3423V77.4495" stroke="white" stroke-miterlimit="10"/>
<path d="M48.2954 80.0682V79.9912" stroke="white" stroke-miterlimit="10"/>
<path d="M52.9758 54.1165V59.0617" stroke="white" stroke-miterlimit="10"/>
<path d="M63.8508 51.6974V46.7368" stroke="white" stroke-miterlimit="10"/>
<path d="M63.8508 63.6241V58.6636" stroke="white" stroke-miterlimit="10"/>
<path d="M52.9758 64.9104V69.8557" stroke="white" stroke-miterlimit="10"/>
<path d="M26.6217 73.1015C21.253 72.9177 17.4444 71.0499 14.7371 68.3552" stroke="white" stroke-miterlimit="10"/>
<path d="M26.9888 77.2659V84.2933" stroke="white" stroke-miterlimit="10"/>
<path d="M26.9888 62.8126V62.7822" stroke="white" stroke-miterlimit="10"/>
<path d="M36.0437 72.2747V77.3424" stroke="white" stroke-miterlimit="10"/>
<path d="M36.0425 72.2747H35.9673" stroke="white" stroke-miterlimit="10"/>
<path d="M38.751 60.7919C37.405 60.7307 31.8833 59.8427 31.7456 65.431L31.7762 81.017" stroke="white" stroke-miterlimit="10"/>
<path d="M34.101 45.3896H18.1631C18.1631 45.3896 16.8018 60.4551 26.9886 63.165V62.7976C28.717 54.5147 37.9555 56.2907 37.9555 56.2907L34.101 45.3896ZM27.7993 50.8248C27.4934 50.8248 27.2333 50.5646 27.2333 50.2584C27.2333 49.9521 27.4934 49.6919 27.7993 49.6919C28.1052 49.6919 28.3652 49.9521 28.3652 50.2584C28.3652 50.5646 28.1052 50.8248 27.7993 50.8248Z" stroke="white" stroke-miterlimit="10"/>
<path d="M24.6943 49.6306H30.9043" stroke="white" stroke-miterlimit="10"/>
<path d="M28.3653 50.2584C28.3653 50.5646 28.1052 50.8249 27.7993 50.8249C27.4934 50.8249 27.2334 50.5646 27.2334 50.2584C27.2334 49.9522 27.4934 49.6919 27.7993 49.6919C28.1052 49.6919 28.3653 49.9522 28.3653 50.2584Z" fill="white" stroke="white" stroke-miterlimit="10"/>
<path d="M42.4373 72.2288L36.0438 72.2595L35.9673 66.5946C36.0744 65.4004 36.9309 64.6961 38.1393 64.7114C39.99 64.742 42.3455 66.4109 42.4373 72.2288Z" stroke="white" stroke-miterlimit="10"/>
<path d="M59.6602 32.4062L60.7156 35.5143" stroke="white" stroke-miterlimit="10"/>
<path d="M53.7254 32.3604L53.0371 35.5755" stroke="white" stroke-miterlimit="10"/>
<path d="M49.045 30.6763L47.2249 33.4168" stroke="white" stroke-miterlimit="10"/>
<path d="M45.3434 26.6343L42.6055 28.5021" stroke="white" stroke-miterlimit="10"/>
<path d="M42.5138 21.689L39.21 22.9291" stroke="white" stroke-miterlimit="10"/>
</g>
<defs>
<clipPath id="clip0_1_4326">
<rect width="80" height="116" fill="white"/>
</clipPath>
</defs>
</svg>
