<svg width="32" height="32" viewBox="0 0 32 32" fill="none" xmlns="http://www.w3.org/2000/svg">
<g clip-path="url(#clip0_1_1096)">
<rect width="32" height="32" rx="16" fill="#FFA21E"/>
<g clip-path="url(#clip1_1_1096)">
<path d="M20.8297 24.89C20.5738 25.8452 20.0403 26.703 19.2968 27.3551C18.5533 28.0071 17.6332 28.424 16.6527 28.5531C15.6723 28.6822 14.6756 28.5176 13.7886 28.0802C12.9017 27.6429 12.1644 26.9523 11.67 26.0959C11.1755 25.2395 10.9461 24.2557 11.0108 23.2689C11.0755 22.2821 11.4313 21.3366 12.0333 20.5521C12.6353 19.7675 13.4565 19.1791 14.3929 18.8612C15.3293 18.5434 16.339 18.5103 17.2942 18.7663C18.5751 19.1095 19.6672 19.9475 20.3302 21.0959C20.9933 22.2443 21.1729 23.6091 20.8297 24.89ZM32.5595 19.7508L28.4184 35.2056C28.3498 35.4618 28.1822 35.6802 27.9525 35.8128C27.7228 35.9454 27.4499 35.9813 27.1937 35.9127L0.147759 28.6657C-0.10842 28.5971 -0.326839 28.4295 -0.459447 28.1998C-0.592056 27.9701 -0.627991 27.6972 -0.559348 27.441L3.58176 11.9862C3.6504 11.73 3.818 11.5116 4.04768 11.379C4.27737 11.2464 4.55032 11.2104 4.8065 11.2791L31.8524 18.526C32.1086 18.5947 32.327 18.7623 32.4596 18.9919C32.5922 19.2216 32.6282 19.4946 32.5595 19.7508ZM29.1281 24.8295C28.1182 24.2113 27.279 23.3502 26.687 22.3248C26.095 21.2993 25.7689 20.142 25.7385 18.9583L9.8852 14.7105C9.26701 15.7204 8.40597 16.5596 7.38051 17.1516C6.35506 17.7437 5.19778 18.0697 4.01408 18.1002L2.87204 22.3623C3.88195 22.9805 4.72114 23.8415 5.31319 24.867C5.90523 25.8924 6.23131 27.0497 6.26173 28.2334L22.115 32.4813C22.7332 31.4714 23.5942 30.6322 24.6197 30.0401C25.6451 29.4481 26.8024 29.122 27.9861 29.0916L29.1281 24.8295Z" fill="white"/>
</g>
</g>
<defs>
<clipPath id="clip0_1_1096">
<rect width="32" height="32" rx="16" fill="white"/>
</clipPath>
<clipPath id="clip1_1_1096">
<rect width="32" height="32" fill="white" transform="translate(4.68628 4) rotate(15)"/>
</clipPath>
</defs>
</svg>
