<svg width="32" height="32" viewBox="0 0 32 32" fill="none" xmlns="http://www.w3.org/2000/svg">
<g clip-path="url(#clip0_1_1084)">
<rect width="32" height="32" rx="16" fill="#FFA21E"/>
<g clip-path="url(#clip1_1_1084)">
<path d="M9.05511 13.4529C7.63842 13.0733 6.16873 13.9218 5.78913 15.3385C5.40952 16.7552 6.25805 18.2249 7.67474 18.6045C9.09144 18.9841 10.5577 18.1484 10.9407 16.7189C11.3238 15.2893 10.4847 13.8359 9.05511 13.4529ZM18.7606 13.2927C18.2512 13.1562 17.7127 13.1738 17.2132 13.3434C16.7138 13.5129 16.2759 13.8267 15.9548 14.2452C15.6337 14.6636 15.444 15.1678 15.4095 15.6941C15.375 16.2204 15.4973 16.7451 15.761 17.2018C16.0247 17.6586 16.418 18.0269 16.891 18.2602C17.364 18.4934 17.8956 18.5812 18.4185 18.5124C18.9414 18.4435 19.4321 18.2212 19.8287 17.8734C20.2252 17.5257 20.5097 17.0681 20.6462 16.5587C21.0293 15.1291 20.1902 13.6758 18.7606 13.2927ZM28.4661 13.1326C27.0494 12.753 25.5797 13.6015 25.2001 15.0182C24.8205 16.4349 25.669 17.9046 27.0857 18.2842C28.5024 18.6638 29.9687 17.8281 30.3517 16.3985C30.7348 14.969 29.8957 13.5156 28.4661 13.1326ZM5.3978 19.3747C4.32884 19.0883 3.23474 19.72 2.94831 20.789L1.3954 26.5845L2.6833 26.9296L0.957838 33.3691L6.10944 34.7495L7.8349 28.31L9.1228 28.6551L10.6757 22.8595C10.9621 21.7905 10.3305 20.6964 9.2615 20.41L5.3978 19.3747ZM15.1033 19.2146C14.0343 18.9282 12.9402 19.5598 12.6538 20.6288L11.1009 26.4243L12.3888 26.7694L10.6633 33.2089L15.8149 34.5893L17.5404 28.1498L18.8283 28.4949L20.3812 22.6993C20.6676 21.6304 20.036 20.5363 18.967 20.2499L15.1033 19.2146ZM24.8088 19.0544C23.7398 18.768 22.6457 19.3997 22.3593 20.4686L20.8064 26.2642L22.0943 26.6093L20.3688 33.0488L25.5204 34.4292L27.2459 27.9897L28.5338 28.3347L30.0867 22.5392C30.3731 21.4702 29.7414 20.3761 28.6725 20.0897L24.8088 19.0544Z" fill="white"/>
</g>
</g>
<defs>
<clipPath id="clip0_1_1084">
<rect width="32" height="32" rx="16" fill="white"/>
</clipPath>
<clipPath id="clip1_1_1084">
<rect width="32" height="32" fill="white" transform="translate(4.68628 4) rotate(15)"/>
</clipPath>
</defs>
</svg>
