<svg xmlns="http://www.w3.org/2000/svg" width="292" height="151" fill="none"><path stroke="#FFA21E" stroke-linecap="round" stroke-width="3" d="M164.657 130.891c6.611 19.832 36.63 18.184 52.886 16.982 27.97-2.069 70.943-12.745 72.413-47.063 1.158-27.022-22.419-46.558-45.364-55.675-14.008-5.566-29.386-8.702-44.395-9.825-4.485-.336-9.539-.794-14.783-1.067m0 0c-12.022-.628-25.045-.29-34.524 4.706-16.28 8.58-11.275 24.317 5.155 26.867 14.719 2.284 36.913-10.528 30.931-28.202a17.466 17.466 0 0 0-1.562-3.371Zm0 0c-5.475-9.163-18.826-13.357-28.216-15.55-18.257-4.265-37.417-4.068-55.918-1.699-17.877 2.29-35.736 5.76-53.067 10.735-13.2 3.79-25.74 9.87-38.572 14.737M31.517 2.14c-.924 5.317-3.172 10.75-5.41 15.623-3.525 7.675-8.044 14.641-14.258 20.4-2.638 2.444-5.454 4.693-8.092 7.14-.35.325-1.162.894-1.377 1.365-.222.488 1.025-.321 1.548-.438 2.536-.57 5.176-.656 7.763-.695 5.556-.083 11.12.255 16.634.963 13.663 1.754 27.46 5.056 40.238 10.26 6.008 2.447 11.753 5.628 16.525 10.066.913.85 1.808 1.764 2.364 2.876"/></svg>